<?xml version="1.0" encoding="UTF-8"?>
<svg version="1.1" viewBox="0 0 1344 824" width="1280" height="1280" xmlns="http://www.w3.org/2000/svg">
<path transform="translate(0)" d="m0 0h1344v824h-1344z" fill="#FEFEFE"/>
<path transform="translate(402,207)" d="m0 0h39l33 1 2 2 11 1 6 3 10 2 5 3 13 7 23 23 8 13 8 17 1 10 3 4v214l-2 1h-29l-5-1v-39l-10 8-8 4-6 7-25 12-16 8-10 2-3 2-17 2-3 2-45 1-7-3-14-1-6-3-9-2-9-5-10-7-8-7-10-10-10-21-2-3v-45l3-5 2-8 9-17 17-17 9-5 5-5 7-3 3-2h6l6-4 8-1 4-3h13l1-3 5-1h25l1-3 98-1 5-6v-16l-3-2-1-13-3-3-2-11-7-11-8-7-10-6-9-6-6-2h-8l-3-3h-54l-2 3h-9l-7 3-24 12-10 10-4 5-3 7-3 6-3 5v7l-9 8-7 1h-7l-3-3-10-2-4-5v-5l3-3 1-12 8-16 6-11 9-9 2-7 6-1 9-9 26-13 9-2 3-2 9-2z" fill="#383A3E"/>
<path transform="translate(1175,207)" d="m0 0 7 1h57l3 3 6 1 6-1 5 4 8 4h7l5 6 10 5 7 3 1 3h2l5 5 15 16 5 5 3 7 8 16 5 11 1 10 3 2v184l-4 4-9 12-3 1h-6l-3 3-5 1-9-2-3-2-9-2-5-4-7-8-4-8-1-4v-115l-1-35-3-2-1-12-6-11-6-9-3-4v-2l-8-2-5-5-18-9h-35l-7 3-7 2-7 6-7 4-9 10-2 6-6 5-2 10-2 2-1 16v138l-2 6-1 1-2 9-13 13-9 1-2 2-4 1h-7l-6-3-9-1-9-9-8-13v-156l3-3 1-17 3-9 1-11 10-19 3-7 14-14 1-6 7-2 12-12 21-11 6-3 11-3 1-1 10-1 1-3z" fill="#F37B43"/>
<path transform="translate(794,160)" d="m0 0h40l2 2 10 1 14 1 9 3 9 2 13 4 5 2 7 2 16 8 9 5 9 6 10 7 6 4 9 9 8 7 11 11 7 8 4 5 6 9 5 8v2l4 2 6 12-1 4 4 7 1 7 3 5v22l-6 11-7 7-10 5h-22l-10-5-9-8-6-15-2-2-2-9-5-9-6-9-7-9-21-21-12-8-13-8-12-5-21-7-16-2-5-2-21-1-14 4-11 1-8 3-10 4-4 1-1 3-9 1-7 6-6 3-7 6-3 4-6 2-8 7-4 5-2 5-7 7-4 7-8 16-3 5-1 8-3 4-2 5-8 8-11 5h-26l-8-7-9-10-1-3v-30l1-2h2v-10l4-4 4-9 6-12 6-8 6-9h2l2-4 3-5 4-6 8-7 4-5 8-6 5-3 8-7 8-5 11-7 6-5 16-8 9-2 3-2 11-3 10-3 2-2h8l18-2z" fill="#3C64AD"/>
<path transform="translate(639,376)" d="m0 0h22l12 6 8 11 13 26 6 8 3 5 4 5 9 7 1 7 5 4 6 2 7 8 3 2 6 2 5 5 8 4 1 1h7l4 4 10 1 3 3 6 1h6l3 3h39v-2l2-1 15-1 3-1 1-2 11-1v-2l11-3 9-5 3-1v-2l8-4 7-6 5-2 11-10 5-6 3-6 5-6 3-6 4-5 6-12v-6l4-6 3-5 10-9 10-5h19l9 5 10 9 3 4v30l-12 25-6 11-5 6-3 6-5 6-2 5-31 31-8 5-6 5-4 4-10 4-16 8-9 4-7 2-5 2-14 4-8 1-7 3-13 1-3 2-9 1h-24l-16-1-3-2-20-2-8-3-9-1-3-2-8-1-4-3-12-5h-5l-3-3-6-3-6-5-14-7-10-9-7-4-28-28-3-2-2-7-5-5-3-7-6-5-4-10-3-10-5-10v-32l9-9 10-6z" fill="#3C64AD"/>
<path transform="translate(865,588)" d="m0 0h18l9 6 29 29 7 2 4 5 9 4 7 3 8 5 11 2 3 3 13 1 1 3h50l3-3 6-1h7l7-4 4-3 9-1 3-3h2l1-4 9-3 3-5h7l2-4 20-20 11-7 11-5h16l11 7 7 9 3 8v21l-5 10-28 28-10 6-6 6-16 8-6 5-10 4-7 2-12 6h-7l-12 4-8 1-3 2-77 1-2-3-13-2-4-2-9-2-3-2-9-2-19-10-14-7-9-6-11-9v-2l-7-2-10-10-7-6-4-5-8-18v-19l6-10 8-8h10z" fill="#F37B43"/>
<path transform="translate(194,120)" d="m0 0h2l1 91 79 1 3 4 1 3v27l-4 5-3 1h-77l1 197 3 4 2 10 6 7 3 1 56 1 7 7 2 3v12l-3 4-1 9-3 1h-65l-8-3-9-3-9-6-9-9-4-8-3-15-2-3-1-208-61-1-5-5-1-3v-24l2-5 3-3 62-1 1-75 8-5 6-3 9-2z" fill="#383A3F"/>
<path transform="translate(436,368)" d="m0 0h87l4 4 1 3v18l-1 3-2 1-1 12-6 12-5 5-2 5-12 12-7 3-5 6-7 4-19 9-12 7-8 1-1 2-9 1h-5l-2 3-4 1h-29l-3-1-2-3h-13l-3-4h-8l-22-22-1-9-3-3v-12l3-3 1-9 3-3 2-6 10-10 4-5 19-10 8-4 13-2 2-2 19-1h14z" fill="#FEFEFE"/>
<path transform="translate(18,212)" d="m0 0h20l8 7 2 3v280l-5 5-3 1h-24l-3-1-4-8-1-7v-41l3-3 1-9v-160l-1-7-3-1v-24l1-22 3-5 2-5z" fill="#383A3E"/>
<path transform="translate(994,736)" d="m0 0h24l3 3 10 1 17 17 2 10 2 6v21l-4 7-7 8-9 9-7 4-1 2h-32l-3-3-12-6-8-8-5-10v-29l7-15 2-5 3-4 8-3z" fill="#F47C43"/>
<path transform="translate(44)" d="m0 0h27l4 3 6 3 3 4v17l-1 1h-10l-2-4h-10l-5-3-1 3-10 1-7 8-4 8v2l2 1 1 9 7 8 3 2 16-1v-5l-10-1-1-1v-19l34-1 2 1 1 10 2 2 1 4v18l-3 4-1 8-2 2-5 2-3 2h-40l-10-6-8-7-5-8-3-7-1-12-3-4 1-4 2-1 1-13 6-12 9-7 16-5z" fill="#383A3F"/>
<path transform="translate(217,32)" d="m0 0h42l10 10 3 2v31l-4 2-2 4-8 7-13 1-2 3-6 1-1 18-1 1h-23v-75z" fill="#383B40"/>
<path transform="translate(303,31)" d="m0 0 20 1 11 11 2 3v26l-4 7-9 8-3 1h-31l-9-10-4-11v-15l5-12 6-5 6-3z" fill="#383A40"/>
<path transform="translate(24,123)" d="m0 0 10 1 14 7 5 3 4 6 3 8v12l-7 14-8 6-9 4h-19l-4-3-6-3-3-3-1-7-3-1v-27l8-7 5-4z" fill="#383A3D"/>
<path transform="translate(161,31)" d="m0 0h6l3 8 2 4-1 4-2 3v8l3 4 1 5h7l-1-10 5-5-5-7v-6l4-6 4-2 12 1 5 6v48l-5 6h-9l-5-5-5-1-4 2h-24l-3-9-1-1v-41l5-5z" fill="#383B42"/>
<path transform="translate(127,31)" d="m0 0 12 1 1 1v22l-1 1h-15v31l-8 3-1 2h-6l-3-3-6-2v-50l5-5h14l2 3h2z" fill="#383B41"/>
<path transform="translate(302,46)" d="m0 0h8l5 4 2 6v7l-3 8-4 3h-7l-5-4-2-5v-10l3-7z" fill="#FEFEFE"/>
<path transform="translate(239,44)" d="m0 0 8 2 4 5 1 11-2 7-4 4-2 1h-7l-2-2-1-5v-19l2-3z" fill="#FEFEFE"/>
</svg>
